P3
 64 36 
255
221 235  255
220 235  255
220 235  255
220 235  255
220 235  255
220 235  255
220 235  255
220 235  255
220 235  255
220 235  255
221 235  255
221 235  255
220 235  255
220 235  255
221 235  255
220 235  255
220 235  255
220 235  255
220 235  255
221 235  255
220 235  255
220 235  255
220 235  255
220 235  255
220 235  255
220 235  255
221 235  255
220 235  255
220 235  255
221 235  255
220 235  255
220 235  255
220 235  255
221 235  255
221 235  255
220 235  255
221 235  255
221 235  255
221 235  255
220 235  255
220 235  255
220 235  255
220 235  255
221 235  255
220 235  255
220 235  255
220 235  255
220 235  255
220 235  255
220 235  255
220 235  255
220 235  255
221 235  255
220 235  255
221 235  255
220 235  255
221 235  255
220 235  255
220 235  255
221 235  255
220 235  255
220 235  255
220 235  255
221 235  255
221 235  255
221 235  255
221 235  255
221 235  255
221 235  255
221 235  255
221 235  255
221 235  255
221 235  255
221 235  255
221 235  255
221 235  255
221 235  255
221 235  255
221 235  255
221 235  255
221 235  255
221 235  255
221 235  255
221 235  255
221 235  255
221 235  255
221 235  255
221 235  255
221 235  255
221 235  255
221 235  255
221 235  255
221 235  255
221 235  255
221 235  255
221 235  255
221 235  255
221 235  255
221 235  255
221 235  255
221 235  255
221 235  255
221 235  255
221 235  255
221 235  255
221 235  255
221 235  255
221 235  255
221 235  255
221 235  255
221 235  255
221 235  255
221 235  255
221 235  255
221 235  255
221 235  255
221 235  255
221 235  255
221 235  255
221 235  255
221 235  255
221 235  255
221 235  255
221 235  255
221 235  255
221 235  255
221 235  255
221 235  255
209 220  236
205 215  229
207 218  233
207 219  234
206 216  231
209 220  236
204 214  228
207 218  233
203 213  227
202 211  225
203 213  227
199 209  222
201 211  224
204 214  229
196 205  217
196 205  217
198 207  220
200 210  223
198 207  220
192 200  211
197 206  219
201 211  224
203 213  228
193 202  214
200 210  224
197 207  220
195 204  217
194 203  214
196 206  218
193 201  212
196 205  217
198 207  220
200 210  223
194 202  214
198 208  221
198 206  219
197 206  218
199 209  223
197 207  220
194 202  214
198 207  220
196 204  217
194 202  214
193 201  212
199 209  222
197 206  219
202 212  226
199 209  222
200 209  222
202 212  226
201 211  226
206 217  232
207 218  234
203 213  228
203 212  226
200 209  223
206 217  232
205 215  230
204 215  229
202 211  224
208 219  234
209 220  236
208 219  235
213 225  242
165 172  181
165 172  181
165 172  181
164 172  181
164 172  181
163 171  181
163 171  181
164 171  181
164 172  181
163 171  181
163 171  181
162 171  181
162 171  181
162 171  181
162 171  181
162 171  181
162 171  181
162 171  181
162 171  181
163 171  181
161 170  181
161 170  181
162 171  181
161 170  181
161 170  181
161 170  181
162 171  181
162 171  181
161 170  181
161 170  181
161 170  181
161 170  181
161 170  181
162 171  181
162 171  181
161 170  181
161 170  181
161 170  181
162 170  181
162 170  181
161 170  181
161 170  181
161 170  181
162 171  181
162 171  181
162 170  181
162 171  181
162 171  181
162 171  181
163 171  181
162 171  181
163 171  181
162 171  181
163 171  181
163 171  181
163 171  181
164 171  181
164 172  181
164 172  181
164 172  181
164 172  181
164 172  181
164 172  181
165 172  181
157 168  181
157 168  181
156 168  181
156 168  181
156 168  181
156 168  181
156 168  181
156 168  181
156 168  181
155 168  181
156 168  181
155 168  181
155 167  181
155 167  181
155 167  181
155 167  181
155 167  181
155 167  181
155 167  181
155 167  181
155 167  181
154 167  181
154 167  181
155 167  181
155 167  181
154 167  181
154 167  181
154 167  181
154 167  181
154 167  181
154 167  181
154 167  181
154 167  181
155 167  181
154 167  181
154 167  181
154 167  181
155 167  181
154 167  181
154 167  181
154 167  181
155 167  181
155 167  181
154 167  181
155 167  181
155 167  181
155 167  181
155 167  181
155 167  181
155 168  181
155 167  181
156 168  181
155 167  181
156 168  181
155 167  181
156 168  181
156 168  181
156 168  181
156 168  181
156 168  181
156 168  181
157 168  181
156 168  181
157 168  181
153 167  181
153 166  181
153 166  181
153 166  181
153 166  181
153 166  181
153 166  181
153 166  181
153 166  181
152 166  181
152 166  181
152 166  181
152 166  181
152 166  181
152 166  181
152 166  181
152 166  181
152 166  181
152 166  181
152 166  181
152 166  181
152 166  181
152 166  181
152 166  181
152 166  181
152 166  181
152 166  181
152 166  181
152 166  181
152 166  181
152 166  181
151 166  181
152 166  181
152 166  181
151 166  181
152 166  181
152 166  181
152 166  181
152 166  181
152 166  181
152 166  181
152 166  181
152 166  181
152 166  181
152 166  181
152 166  181
152 166  181
152 166  181
152 166  181
152 166  181
152 166  181
152 166  181
152 166  181
152 166  181
153 166  181
153 166  181
153 166  181
153 166  181
153 166  181
153 166  181
153 166  181
153 167  181
153 167  181
154 167  181
153 166  181
153 166  181
152 166  181
152 166  181
152 166  181
152 166  181
152 166  181
152 166  181
152 166  181
152 166  181
152 166  181
152 166  181
152 166  181
152 166  181
152 166  181
151 166  181
151 166  181
151 166  181
151 166  181
151 166  181
151 166  181
151 166  181
151 166  181
151 166  181
151 166  181
151 166  181
151 165  181
151 165  181
151 165  181
151 165  181
151 165  181
151 165  181
151 165  181
151 165  181
151 165  181
151 165  181
151 165  181
151 165  181
151 166  181
151 166  181
151 166  181
151 166  181
151 166  181
151 166  181
151 166  181
151 166  181
151 166  181
151 166  181
152 166  181
152 166  181
152 166  181
152 166  181
152 166  181
152 166  181
152 166  181
152 166  181
152 166  181
152 166  181
152 166  181
152 166  181
152 166  181
153 166  181
153 166  181
153 166  181
154 167  181
154 167  181
153 167  181
153 167  181
153 166  181
153 166  181
153 166  181
153 166  181
153 166  181
153 166  181
153 166  181
153 166  181
153 166  181
153 166  181
153 166  181
153 166  181
153 166  181
152 166  181
152 166  181
152 166  181
152 166  181
152 166  181
152 166  181
152 166  181
152 166  181
152 166  181
152 166  181
152 166  181
152 166  181
152 166  181
152 166  181
152 166  181
152 166  181
152 166  181
152 166  181
152 166  181
152 166  181
152 166  181
152 166  181
152 166  181
152 166  181
152 166  181
152 166  181
153 166  181
153 166  181
153 166  181
153 166  181
153 166  181
153 166  181
153 166  181
153 166  181
153 166  181
153 166  181
153 166  181
153 166  181
153 166  181
153 166  181
153 166  181
153 166  181
153 166  181
153 167  181
153 167  181
154 167  181
154 167  181
156 168  181
156 168  181
156 168  181
156 168  181
156 168  181
155 168  181
155 168  181
155 167  181
155 167  181
155 168  181
155 167  181
155 167  181
155 168  181
155 167  181
155 167  181
155 167  181
155 167  181
155 167  181
155 167  181
155 167  181
155 167  181
155 167  181
155 167  181
155 167  181
155 167  181
155 167  181
155 167  181
155 167  181
155 167  181
155 167  181
155 167  181
155 167  181
155 167  181
155 167  181
155 167  181
155 167  181
155 167  181
155 167  181
155 167  181
155 167  181
155 167  181
155 167  181
155 167  181
155 167  181
155 167  181
155 167  181
155 167  181
155 167  181
155 167  181
155 167  181
155 167  181
155 167  181
155 167  181
155 167  181
155 168  181
155 168  181
155 168  181
155 168  181
156 168  181
156 168  181
156 168  181
156 168  181
156 168  181
156 168  181
159 169  181
159 169  181
159 169  181
159 169  181
159 169  181
159 169  181
159 169  181
159 169  181
159 169  181
158 169  181
159 169  181
158 169  181
158 169  181
159 169  181
158 169  181
158 169  181
158 169  181
158 169  181
158 169  181
158 169  181
158 169  181
158 169  181
158 169  181
158 169  181
158 169  181
158 169  181
158 169  181
158 169  181
158 169  181
158 169  181
158 169  181
158 169  181
158 169  181
158 169  181
158 169  181
158 169  181
158 169  181
158 169  181
158 169  181
158 169  181
158 169  181
158 169  181
158 169  181
158 169  181
158 169  181
158 169  181
158 169  181
158 169  181
158 169  181
158 169  181
158 169  181
159 169  181
159 169  181
159 169  181
158 169  181
159 169  181
159 169  181
158 169  181
159 169  181
159 169  181
159 169  181
159 169  181
159 169  181
159 169  181
163 171  181
163 171  181
163 171  181
163 171  181
163 171  181
163 171  181
162 171  181
163 171  181
163 171  181
162 171  181
162 171  181
162 171  181
162 171  181
162 171  181
162 171  181
162 171  181
162 171  181
162 171  181
162 171  181
162 171  181
162 171  181
162 171  181
162 171  181
162 171  181
162 171  181
162 171  181
162 171  181
162 171  181
162 171  181
162 171  181
162 171  181
162 171  181
162 171  181
162 171  181
162 171  181
162 171  181
162 171  181
162 171  181
162 171  181
162 171  181
162 171  181
162 171  181
162 171  181
162 171  181
162 171  181
162 171  181
162 171  181
162 171  181
162 171  181
162 171  181
162 171  181
162 171  181
163 171  181
163 171  181
162 171  181
162 171  181
163 171  181
163 171  181
162 171  181
163 171  181
163 171  181
163 171  181
163 171  181
163 171  181
167 173  181
167 173  181
167 173  181
167 173  181
167 173  181
167 173  181
167 173  181
167 173  181
167 173  181
167 173  181
167 173  181
167 173  181
167 173  181
167 173  181
167 173  181
167 173  181
167 173  181
167 173  181
167 173  181
167 173  181
166 173  181
167 173  181
166 173  181
166 173  181
166 173  181
167 173  181
166 173  181
167 173  181
167 173  181
167 173  181
166 173  181
166 173  181
166 173  181
166 173  181
167 173  181
166 173  181
166 173  181
166 173  181
166 173  181
167 173  181
166 173  181
167 173  181
167 173  181
166 173  181
166 173  181
167 173  181
167 173  181
166 173  181
167 173  181
166 173  181
167 173  181
167 173  181
167 173  181
167 173  181
167 173  181
167 173  181
167 173  181
167 173  181
167 173  181
167 173  181
167 173  181
167 173  181
167 173  181
167 173  181
171 175  181
172 175  181
172 176  181
171 175  181
171 175  181
171 175  181
172 175  181
171 175  181
171 175  181
171 175  181
171 175  181
172 175  181
171 175  181
171 175  181
171 175  181
171 175  181
171 175  181
171 175  181
171 175  181
171 175  181
171 175  181
171 175  181
171 175  181
171 175  181
171 175  181
171 175  181
171 175  181
171 175  181
171 175  181
171 175  181
171 175  181
171 175  181
171 175  181
171 175  181
171 175  181
171 175  181
171 175  181
171 175  181
171 175  181
171 175  181
171 175  181
171 175  181
171 175  181
171 175  181
171 175  181
171 175  181
171 175  181
171 175  181
171 175  181
171 175  181
171 175  181
171 175  181
171 175  181
171 175  181
171 175  181
172 176  181
171 175  181
171 175  181
171 175  181
172 175  181
172 175  181
172 176  181
172 175  181
172 175  181
176 178  181
177 178  181
176 178  181
176 178  181
176 178  181
176 178  181
176 178  181
176 178  181
176 178  181
176 178  181
176 178  181
176 178  181
176 178  181
176 178  181
176 178  181
176 178  181
176 178  181
176 178  181
176 178  181
176 178  181
176 178  181
176 178  181
176 178  181
176 178  181
176 178  181
176 178  181
176 178  181
176 178  181
176 178  181
176 178  181
176 178  181
176 178  181
176 178  181
176 178  181
176 178  181
176 178  181
176 178  181
176 178  181
176 178  181
176 178  181
176 178  181
176 178  181
176 178  181
176 178  181
176 178  181
176 178  181
176 178  181
176 178  181
176 178  181
176 178  181
176 178  181
176 178  181
176 178  181
176 178  181
176 178  181
176 178  181
176 178  181
176 178  181
176 178  181
176 178  181
177 178  181
176 178  181
176 178  181
177 178  181
181 180  181
181 180  181
181 180  181
181 180  181
181 180  181
181 180  181
181 180  181
181 180  181
181 180  181
181 180  181
181 180  181
181 180  181
181 180  181
181 180  181
181 180  181
181 180  181
181 180  181
181 180  181
181 180  181
181 180  181
181 180  181
181 180  181
181 180  181
181 180  181
181 180  181
181 180  181
181 180  181
181 180  181
181 180  181
181 180  181
181 180  181
181 180  181
181 180  181
181 180  181
181 180  181
181 180  181
181 180  181
181 180  181
181 180  181
181 180  181
181 180  181
181 180  181
181 180  181
181 180  181
181 180  181
181 180  181
181 180  181
181 180  181
181 180  181
181 180  181
181 180  181
181 180  181
181 180  181
181 180  181
181 180  181
181 180  181
181 180  181
181 180  181
181 180  181
181 180  181
181 180  181
181 180  181
181 180  181
181 180  181
159 159  160
167 166  166
163 162  163
161 161  161
159 158  159
160 160  161
161 161  161
162 162  162
162 161  162
166 165  165
163 162  163
160 160  160
164 164  164
167 166  166
164 163  162
157 156  155
170 169  166
165 164  164
165 165  165
161 161  161
165 165  165
160 160  161
165 164  164
164 164  164
162 161  162
161 161  162
167 166  166
160 160  161
162 162  162
163 163  163
164 163  163
165 164  164
167 166  166
162 162  163
168 167  167
170 169  168
167 166  166
167 166  166
163 162  163
166 165  165
166 165  165
160 160  160
164 164  164
164 163  163
160 160  161
159 159  160
163 163  163
167 166  166
167 166  166
165 165  165
162 162  162
166 166  166
167 166  166
167 166  166
167 166  166
163 162  163
166 165  165
160 160  160
160 160  161
159 159  160
160 160  161
158 158  159
164 163  164
163 163  163
111 117  123
110 116  122
111 117  123
102 107  112
78 92  92
60 81  77
41 81  71
46 86  76
44 74  66
76 76  79
89 89  96
85 86  99
93 99  119
95 109  129
66 91  110
61 85  107
62 97  108
79 83  86
82 88  90
68 77  79
66 75  77
69 76  78
68 77  79
82 90  93
90 98  103
105 115  122
105 116  123
105 115  122
105 115  122
106 114  122
106 115  122
110 117  124
93 101  109
91 100  111
88 98  107
80 94  98
88 90  98
91 90  96
85 82  86
88 89  93
92 93  97
100 102  107
90 99  104
87 98  101
73 87  89
75 88  90
79 91  94
84 95  98
88 98  103
84 93  98
87 89  100
93 92  107
93 91  106
92 90  106
101 103  113
111 116  123
112 118  125
109 114  121
110 114  121
110 115  121
107 113  121
101 103  114
92 86  104
88 70  103
106 112  118
101 105  111
75 79  87
53 55  64
32 31  43
12 7  30
18 8  27
12 7  31
13 8  34
13 8  31
11 7  33
30 30  44
52 55  65
54 58  68
65 68  76
81 85  93
100 106  113
101 108  114
103 110  117
101 108  114
101 107  113
101 109  115
77 94  100
57 89  96
49 82  89
38 78  85
40 80  86
36 75  82
35 77  84
37 78  86
50 82  89
53 83  91
63 88  95
89 101  108
100 107  114
107 113  119
103 109  116
108 115  122
89 97  115
85 94  116
79 89  112
68 81  111
70 83  119
62 76  113
60 74  108
52 69  106
53 69  107
59 75  114
58 73  111
66 79  112
78 89  115
83 93  117
84 91  107
68 68  69
62 59  58
47 41  36
45 39  34
41 31  23
43 34  28
41 32  23
51 44  39
47 39  32
54 48  44
66 63  64
103 107  112
95 100  106
101 105  111
94 97  102
87 91  96
80 84  90
84 87  92
75 79  85
83 87  93
74 76  82
75 79  87
74 78  85
79 84  90
87 91  97
88 94  101
95 100  106
93 99  106
94 99  106
101 106  112
102 107  114
104 110  117
100 107  114
98 104  118
94 100  119
80 86  115
78 84  120
81 87  124
74 80  119
67 72  120
67 73  127
75 81  124
66 72  119
70 75  126
69 74  130
61 67  124
67 72  120
70 76  127
64 69  124
68 74  117
61 67  119
53 60  116
52 61  109
52 60  105
53 60  97
73 80  100
75 81  97
76 83  101
68 76  96
72 79  98
86 92  104
80 86  101
88 96  109
98 104  113
96 101  108
97 102  110
100 106  114
97 102  107
100 106  113
93 98  105
101 106  113
104 110  116
100 106  114
100 106  112
105 110  118
105 108  113
106 110  117
102 107  114
107 111  117
105 109  114
105 109  116
103 107  114
101 105  113
102 107  116
106 111  117
102 107  113
105 111  118
103 108  116
105 110  117
102 107  116
104 109  116
106 112  121
103 109  117
91 96  105
97 102  110
96 101  110
72 77  114
43 47  118
32 35  112
31 35  113
10 17  110
9 16  114
9 16  111
8 15  106
8 15  109
9 16  113
8 15  106
9 15  107
8 15  105
9 15  109
8 15  106
8 15  108
8 14  101
9 15  109
8 15  106
9 15  108
21 26  114
37 40  108
36 40  109
64 68  112
99 105  116
92 97  106
100 105  113
104 109  117
100 105  114
102 108  117
100 105  116
100 105  114
102 107  115
102 107  115
104 109  117
101 106  111
104 109  116
103 108  116
108 113  119
100 105  114
108 114  122
102 108  117
107 113  120
105 110  116
106 110  117
105 108  114
106 110  116
104 108  115
106 111  118
102 107  115
105 110  116
105 111  119
107 112  118
101 105  112
103 109  116
104 109  115
105 110  118
91 95  103
98 102  110
97 101  108
98 103  109
90 95  103
93 97  104
98 102  110
98 102  111
93 96  104
93 97  105
93 97  104
83 86  94
88 91  103
88 92  102
76 79  91
79 82  97
78 81  91
87 91  102
79 82  93
79 82  93
74 77  88
78 81  94
79 82  96
77 80  91
77 81  90
81 84  96
81 84  94
89 93  100
95 98  106
90 94  104
92 96  103
96 101  109
93 98  105
97 101  110
95 100  107
98 102  109
98 102  109
103 108  115
104 108  115
100 105  113
102 107  114
97 102  109
100 105  113
107 112  118
108 113  120
106 111  119
102 107  114
106 111  117
105 110  118
104 108  114
104 107  113
100 103  108
100 104  109
106 111  116
101 106  112
103 106  111
102 106  111
104 107  112
102 105  110
103 107  113
102 105  112
107 111  116
100 104  110
97 101  107
102 107  113
97 102  107
99 103  109
105 109  116
104 108  114
99 103  109
99 103  108
98 102  108
98 102  107
99 103  109
101 106  112
99 104  109
102 106  112
98 102  111
97 100  106
97 101  108
97 101  106
99 103  111
104 108  113
100 104  110
100 104  111
97 101  106
99 103  110
99 102  107
101 105  110
102 107  114
100 104  110
102 106  110
99 103  110
99 102  108
98 102  107
100 103  109
101 105  110
99 101  105
106 111  117
102 105  110
100 104  110
105 109  115
103 108  115
102 107  113
94 98  104
102 106  111
102 107  114
100 104  109
106 110  116
103 107  113
99 103  107
102 105  111
102 106  110
105 110  116
98 102  106
100 104  109
100 103  107
105 108  111
101 104  108
97 99  103
103 107  112
93 95  99
98 102  106
101 105  110
100 104  107
101 104  109
100 103  107
98 101  106
101 105  109
99 102  105
103 107  112
99 102  107
99 103  108
99 103  108
99 103  108
100 102  106
99 103  108
95 97  101
102 105  110
104 107  112
100 104  108
100 104  108
98 101  105
97 100  105
100 104  108
100 104  109
98 101  105
98 102  107
101 105  110
96 100  105
96 99  105
97 100  104
97 101  105
90 94  99
98 101  106
97 101  107
98 102  107
99 103  108
93 95  99
98 102  107
102 105  110
93 95  99
96 99  103
92 95  98
101 105  109
100 102  105
100 103  106
92 96  99
100 104  109
96 99  104
98 101  105
90 93  96
94 97  101
93 96  100
99 102  107
98 101  105
96 99  102
88 92  96
93 95  98
90 92  93
93 95  98
93 96  99
98 101  104
93 95  98
93 96  100
96 99  103
93 95  98
93 95  98
95 97  100
100 102  106
93 95  97
92 94  96
97 99  103
89 92  96
91 94  97
90 93  96
92 94  97
97 99  102
92 95  100
95 98  101
91 94  97
91 93  94
98 100  103
93 96  100
95 98  101
96 98  103
90 92  95
97 99  101
93 97  100
96 99  102
93 95  98
95 98  102
94 96  99
91 94  97
90 93  97
91 93  96
90 92  95
96 98  101
89 91  94
92 93  95
89 91  93
87 89  92
88 91  94
97 100  104
88 91  93
89 91  95
88 91  94
93 95  98
95 99  102
80 81  84
85 88  90
88 90  92
81 83  86
81 82  86
77 78  82
84 85  86
81 83  86
83 84  85
82 83  84
85 88  91
81 82  83
81 84  87
82 83  85
80 81  83
88 90  92
78 79  80
78 78  79
87 89  91
88 88  90
87 87  88
89 90  92
85 85  87
77 79  81
87 89  91
85 87  88
86 87  89
83 85  87
78 79  80
83 84  86
82 84  86
85 88  90
86 88  90
85 86  88
82 84  87
89 91  94
86 87  90
85 86  87
79 80  81
85 86  88
84 86  88
85 87  89
87 88  89
87 88  90
86 87  88
81 82  84
79 80  81
84 86  89
81 81  82
76 76  76
81 82  84
85 87  89
82 82  83
87 88  90
78 80  82
81 81  83
78 79  80
80 82  84
84 85  86
79 81  83
78 79  82
80 81  82
70 71  73
80 83  85
86 88  91
80 81  82
79 80  82
69 71  71
66 67  68
71 71  71
70 71  73
70 71  72
66 67  68
74 75  76
78 78  79
71 71  72
76 76  78
70 72  72
63 63  63
67 68  69
72 73  73
70 71  71
65 64  65
68 68  69
64 66  67
78 78  78
76 78  80
69 69  69
73 74  75
75 75  76
70 71  71
71 72  73
71 71  71
71 71  72
65 65  65
69 70  72
62 62  64
71 72  72
62 62  62
73 74  75
76 77  78
66 66  68
73 74  75
69 69  69
71 72  72
70 71  73
66 66  66
65 65  65
68 68  69
69 69  70
69 70  71
71 71  71
69 70  72
69 68  68
62 62  62
71 72  73
60 59  59
74 74  75
63 63  64
62 61  61
66 66  67
63 63  64
63 62  62
67 67  68
66 66  65
72 72  72
66 67  68
62 62  61
62 62  62
67 68  69
64 64  64
56 55  55
62 62  63
68 67  68
57 57  57
62 62  62
57 58  58
63 62  62
62 62  62
63 62  64
56 55  56
39 40  42
54 57  62
42 43  45
52 56  60
39 40  44
46 48  47
37 37  37
35 35  37
48 50  55
45 46  47
34 35  37
45 44  46
46 48  49
44 45  56
46 48  76
39 39  72
28 30  91
24 24  99
42 44  114
40 41  130
37 39  118
41 41  110
46 48  140
39 39  127
35 39  160
27 31  147
45 47  139
30 34  150
32 38  171
28 33  152
34 38  158
38 41  158
25 29  151
30 35  162
33 37  161
30 35  157
26 33  174
34 39  171
41 44  153
30 34  159
28 33  165
34 38  160
36 39  160
35 38  160
35 38  156
33 37  153
38 41  148
25 28  137
30 34  140
35 38  143
31 34  124
34 36  131
39 42  126
34 37  124
38 40  101
38 39  92
43 43  91
43 45  87
45 47  74
29 30  38
37 38  40
54 57  61
51 53  57
60 62  66
85 93  101
79 86  93
73 78  86
68 73  96
70 77  106
48 53  120
53 58  136
44 50  152
32 39  156
32 38  157
28 35  169
12 24  185
20 29  181
13 25  194
12 24  190
13 25  192
12 24  190
12 24  188
13 25  194
13 25  196
13 25  192
13 25  193
13 25  196
13 26  199
13 25  198
13 25  194
13 25  197
13 25  195
13 25  193
13 25  196
12 25  192
13 25  197
13 26  200
13 25  195
13 25  197
13 25  193
13 25  195
12 25  193
12 24  192
12 25  194
13 25  199
12 24  188
13 25  193
12 25  192
13 25  196
12 25  193
13 25  193
13 25  199
13 25  197
13 25  193
13 26  201
13 25  196
13 25  194
12 24  191
13 25  195
13 25  193
13 25  196
12 25  192
13 25  194
13 25  195
24 33  193
24 33  189
35 43  178
33 38  159
81 89  145
54 60  154
33 40  161
14 24  169
11 21  166
12 23  176
12 23  179
12 23  179
11 22  172
12 23  178
12 24  183
12 24  186
12 23  182
11 23  174
12 23  179
12 23  178
12 23  181
12 24  187
12 23  175
12 23  177
12 24  187
12 23  179
12 24  187
12 24  185
12 24  184
12 23  178
12 24  188
12 23  183
12 24  185
12 24  185
12 23  179
12 23  180
12 24  184
12 24  188
12 24  188
12 23  182
12 24  189
11 22  172
12 24  184
12 23  182
12 24  188
12 24  186
12 24  187
12 24  185
11 23  179
12 23  182
12 24  187
12 24  191
11 22  172
12 24  187
11 23  177
12 24  187
12 23  183
12 24  184
12 24  187
12 24  186
12 23  182
12 24  187
11 22  178
12 24  184
12 23  183
12 24  184
12 23  183
12 24  184
16 25  154
10 20  155
11 21  162
11 22  171
11 22  166
11 22  169
11 22  170
11 22  173
11 22  170
10 20  154
11 21  163
11 21  166
11 22  173
11 21  166
11 22  170
11 21  166
11 22  167
11 22  172
11 22  173
12 22  174
11 22  168
11 21  162
11 22  174
11 21  165
12 23  179
11 22  170
12 23  176
11 22  176
11 22  172
11 22  170
11 22  171
11 22  174
11 21  167
11 22  169
11 22  172
11 22  171
11 23  176
11 23  177
11 21  163
12 23  181
11 22  169
11 21  167
11 22  171
11 21  162
10 21  165
12 23  181
12 23  177
12 23  179
11 23  178
11 22  175
10 21  163
11 21  165
11 21  169
11 22  174
11 22  175
11 23  175
11 22  176
11 22  174
11 22  172
11 22  173
11 22  172
11 22  175
11 22  173
11 22  170
123 139  163
95 107  151
85 96  152
62 73  155
51 59  150
25 31  148
10 19  147
10 19  151
10 19  150
10 19  152
10 19  151
10 19  149
10 20  153
10 20  156
10 20  155
10 20  153
10 19  149
11 21  162
10 19  149
10 19  148
10 19  149
10 20  158
10 20  161
10 20  155
10 20  156
9 19  149
10 20  154
9 19  149
10 19  153
10 20  155
10 20  158
10 19  151
10 20  156
9 19  148
10 19  149
10 19  150
10 19  150
10 20  156
10 19  153
10 20  156
10 19  149
9 19  151
9 19  149
10 20  162
10 20  156
9 19  151
10 19  152
10 20  158
10 20  158
10 20  162
9 18  145
9 18  147
10 19  151
10 19  152
10 20  158
10 20  160
10 19  154
10 19  151
10 19  151
9 19  150
9 18  144
10 20  157
10 20  158
10 20  158
117 132  156
111 125  150
113 126  151
112 127  150
116 130  153
120 136  159
109 122  149
100 114  145
91 102  143
95 107  147
78 88  143
71 79  126
76 86  151
64 72  138
49 55  133
64 71  137
35 42  139
34 40  125
26 33  141
34 40  128
8 15  126
8 17  134
8 16  128
9 18  142
8 16  129
8 15  126
8 17  136
7 15  122
8 15  127
9 18  142
9 17  138
9 18  147
8 17  136
9 17  140
9 17  140
8 17  137
9 18  140
9 18  143
9 17  139
9 18  142
8 17  136
9 18  146
8 17  138
9 18  143
9 17  138
8 17  136
8 17  133
9 18  141
8 17  136
8 16  130
8 17  136
8 16  130
8 16  135
20 28  141
17 24  134
20 27  136
48 54  137
50 57  140
53 62  134
58 66  141
61 69  137
67 76  141
80 90  138
91 103  150
96 116  143
97 113  140
98 118  142
103 118  144
102 117  141
82 102  130
87 104  134
97 112  138
96 110  137
96 109  136
93 106  134
96 107  134
82 93  123
85 95  124
80 89  118
97 108  133
88 98  122
79 87  115
78 88  114
85 95  119
70 78  106
73 80  107
74 82  111
75 84  118
67 75  100
68 76  101
66 74  102
58 65  100
63 70  101
50 54  92
59 67  106
54 60  102
61 68  106
55 60  95
57 64  112
40 44  88
49 54  97
56 62  102
50 54  89
62 69  104
56 62  105
51 57  91
63 69  104
60 67  106
65 73  107
62 70  103
59 63  97
69 78  111
66 73  105
76 85  115
71 79  107
71 79  104
82 92  115
69 78  105
77 86  111
82 92  118
86 96  122
82 92  120
92 101  126
101 113  139
94 106  132
93 105  133
96 108  134
99 110  133
17 126  153
16 123  147
16 123  149
17 127  153
17 125  152
17 127  153
17 126  152
17 127  153
17 127  154
17 126  152
17 128  153
17 125  151
30 127  153
21 127  153
39 125  151
42 127  153
28 124  151
35 123  150
49 126  152
56 130  155
41 117  145
55 121  147
70 126  152
67 127  152
59 117  145
46 116  144
75 119  147
76 124  149
83 124  151
86 120  146
93 127  154
86 114  142
102 125  154
100 119  148
111 129  159
118 134  162
103 117  146
103 117  146
99 113  142
106 120  149
116 131  159
102 115  142
115 131  158
112 127  156
116 133  160
115 131  156
107 122  150
114 129  157
111 126  152
108 123  151
104 119  147
114 132  161
114 130  156
105 119  150
117 134  161
111 127  156
112 127  153
111 126  153
117 133  161
110 125  154
112 128  154
118 135  162
119 135  163
117 133  160
16 122  147
17 124  150
16 123  148
17 123  149
16 120  145
16 123  148
16 122  147
16 122  147
17 124  149
16 122  148
17 123  148
17 124  149
17 124  149
17 125  150
16 121  146
17 123  148
17 125  150
16 123  148
17 125  149
17 124  149
16 118  142
16 121  145
17 125  150
16 121  145
16 121  145
16 122  147
16 122  147
16 119  144
16 118  142
16 120  144
16 120  145
15 115  139
16 118  143
16 121  146
16 121  145
34 119  144
41 118  143
62 129  153
62 122  146
84 126  151
95 128  152
104 134  159
112 139  165
120 141  167
127 146  173
120 138  165
123 140  167
125 142  167
123 141  168
123 140  167
123 141  169
122 140  167
125 143  169
119 135  161
118 136  164
122 138  163
122 139  166
122 139  166
120 137  164
120 138  163
125 143  171
124 141  168
119 136  164
122 140  168
16 119  142
16 118  142
16 121  145
16 119  143
16 121  144
16 120  144
16 116  139
16 122  145
15 114  138
16 120  144
16 118  141
16 120  143
16 116  139
16 119  143
16 118  142
16 116  140
16 117  141
16 117  142
16 119  142
16 118  140
16 121  146
16 119  143
15 114  137
15 113  136
16 120  144
16 116  139
16 118  142
16 116  141
16 118  142
16 122  145
16 116  140
16 117  140
16 117  141
16 117  141
16 118  142
16 119  143
16 115  137
16 114  136
15 114  137
16 121  144
15 114  137
15 111  135
15 110  132
15 114  138
33 116  138
67 119  142
95 133  157
107 131  157
127 145  171
120 137  162
125 143  169
123 140  167
125 142  166
117 135  162
119 137  163
120 137  162
119 136  162
128 145  170
121 139  165
119 137  164
122 139  165
118 135  159
118 135  161
115 132  156
