P3
 64 36 
255
221 235  255
220 235  255
220 235  255
220 235  255
220 235  255
221 235  255
220 235  255
220 235  255
221 235  255
220 235  255
221 235  255
220 235  255
221 235  255
221 235  255
220 235  255
220 235  255
220 235  255
221 235  255
220 235  255
220 235  255
221 235  255
221 235  255
220 235  255
220 235  255
221 235  255
220 235  255
220 235  255
220 235  255
221 235  255
221 235  255
221 235  255
220 235  255
221 235  255
220 235  255
220 235  255
221 235  255
220 235  255
220 235  255
221 235  255
220 235  255
221 235  255
220 235  255
220 235  255
220 235  255
221 235  255
220 235  255
221 235  255
221 235  255
221 235  255
221 235  255
220 235  255
220 235  255
220 235  255
220 235  255
221 235  255
221 235  255
220 235  255
220 235  255
220 235  255
221 235  255
221 235  255
220 235  255
220 235  255
220 235  255
221 235  255
221 235  255
221 235  255
221 235  255
221 235  255
221 235  255
221 235  255
221 235  255
221 235  255
221 235  255
221 235  255
221 235  255
221 235  255
221 235  255
221 235  255
221 235  255
221 235  255
221 235  255
221 235  255
221 235  255
221 235  255
221 235  255
221 235  255
221 235  255
221 235  255
221 235  255
221 235  255
221 235  255
221 235  255
221 235  255
221 235  255
221 235  255
221 235  255
221 235  255
221 235  255
221 235  255
221 235  255
221 235  255
221 235  255
221 235  255
221 235  255
221 235  255
221 235  255
221 235  255
221 235  255
221 235  255
221 235  255
221 235  255
221 235  255
221 235  255
221 235  255
221 235  255
221 235  255
221 235  255
221 235  255
221 235  255
221 235  255
221 235  255
221 235  255
221 235  255
221 235  255
221 235  255
221 235  255
221 235  255
214 225  242
209 220  236
204 214  228
209 220  236
204 214  228
204 214  228
208 219  236
208 219  236
208 219  236
203 214  228
194 202  214
212 225  242
207 219  236
209 220  236
191 197  206
189 196  206
208 220  236
194 202  214
202 213  228
207 219  236
203 214  228
203 214  228
204 214  228
209 220  236
208 220  236
203 214  228
209 220  236
203 214  228
200 209  221
198 208  221
188 196  206
185 190  198
200 209  221
184 189  198
204 214  228
212 225  242
193 202  214
184 189  198
193 202  214
208 220  236
184 190  198
200 209  221
198 208  221
203 214  228
193 202  214
198 208  221
208 220  236
203 214  228
194 202  214
194 202  214
194 202  214
203 214  228
195 202  214
199 208  221
200 208  221
200 209  221
195 203  214
208 219  236
183 189  198
194 202  214
209 220  236
204 214  228
203 214  228
209 220  236
165 172  181
165 172  181
165 172  181
165 172  181
164 172  181
163 171  181
163 171  181
164 172  181
164 172  181
164 172  181
161 170  181
162 171  181
165 172  181
161 170  181
162 171  181
161 170  181
163 171  181
163 171  181
161 170  181
160 170  181
162 171  181
162 171  181
160 170  181
161 170  181
161 170  181
161 170  181
161 170  181
161 170  181
162 171  181
162 171  181
161 170  181
160 170  181
161 170  181
162 171  181
160 169  181
161 170  181
162 170  181
161 170  181
161 170  181
160 170  181
162 170  181
161 170  181
163 171  181
161 170  181
161 170  181
160 170  181
160 170  181
162 171  181
163 171  181
160 170  181
162 171  181
163 171  181
161 170  181
164 172  181
165 172  181
163 171  181
165 172  181
163 171  181
163 171  181
163 171  181
165 172  181
165 172  181
165 172  181
166 173  181
156 168  181
157 168  181
156 168  181
156 168  181
157 168  181
156 168  181
156 168  181
155 167  181
155 167  181
155 168  181
155 168  181
156 168  181
156 168  181
156 168  181
155 167  181
154 167  181
156 168  181
155 167  181
155 167  181
155 167  181
154 167  181
155 167  181
154 167  181
155 167  181
154 167  181
155 167  181
154 167  181
154 167  181
154 167  181
155 167  181
154 167  181
154 167  181
155 167  181
154 167  181
154 167  181
154 167  181
155 167  181
155 167  181
154 167  181
155 167  181
155 167  181
155 167  181
154 167  181
155 167  181
155 167  181
155 167  181
155 167  181
155 167  181
156 168  181
156 168  181
155 167  181
155 167  181
156 168  181
155 167  181
156 168  181
155 167  181
156 168  181
157 168  181
156 168  181
156 168  181
156 168  181
156 168  181
156 168  181
157 168  181
153 167  181
153 166  181
153 166  181
153 166  181
153 166  181
153 166  181
153 166  181
153 166  181
153 166  181
153 166  181
153 166  181
153 166  181
152 166  181
152 166  181
152 166  181
152 166  181
152 166  181
152 166  181
152 166  181
152 166  181
152 166  181
152 166  181
151 166  181
152 166  181
152 166  181
151 166  181
151 166  181
152 166  181
152 166  181
152 166  181
151 166  181
151 166  181
152 166  181
151 166  181
152 166  181
152 166  181
152 166  181
152 166  181
152 166  181
152 166  181
152 166  181
152 166  181
152 166  181
152 166  181
152 166  181
152 166  181
152 166  181
152 166  181
152 166  181
152 166  181
152 166  181
152 166  181
153 166  181
152 166  181
152 166  181
153 166  181
153 166  181
153 166  181
153 166  181
153 166  181
153 166  181
153 166  181
153 167  181
154 167  181
153 166  181
153 166  181
152 166  181
152 166  181
152 166  181
152 166  181
152 166  181
152 166  181
152 166  181
152 166  181
152 166  181
152 166  181
152 166  181
152 166  181
152 166  181
152 166  181
151 166  181
151 166  181
151 166  181
151 166  181
151 166  181
151 166  181
151 166  181
151 165  181
151 166  181
151 166  181
151 166  181
151 166  181
151 165  181
151 165  181
151 165  181
151 165  181
151 165  181
151 165  181
151 166  181
151 165  181
151 165  181
151 166  181
151 165  181
151 166  181
151 166  181
151 166  181
151 166  181
151 166  181
151 166  181
151 166  181
152 166  181
151 166  181
152 166  181
152 166  181
152 166  181
152 166  181
152 166  181
152 166  181
152 166  181
152 166  181
152 166  181
152 166  181
152 166  181
152 166  181
152 166  181
153 166  181
153 166  181
153 166  181
154 167  181
154 167  181
153 166  181
154 167  181
153 167  181
153 166  181
153 166  181
153 166  181
153 166  181
153 166  181
153 166  181
153 166  181
153 166  181
153 166  181
153 166  181
153 166  181
153 166  181
153 166  181
153 166  181
152 166  181
152 166  181
152 166  181
152 166  181
152 166  181
153 166  181
153 166  181
153 166  181
152 166  181
152 166  181
153 166  181
152 166  181
152 166  181
153 166  181
152 166  181
153 166  181
152 166  181
152 166  181
152 166  181
152 166  181
153 166  181
152 166  181
153 166  181
152 166  181
153 166  181
153 166  181
153 166  181
153 166  181
152 166  181
153 166  181
153 166  181
153 166  181
153 166  181
153 166  181
153 166  181
153 166  181
153 166  181
153 166  181
153 167  181
153 167  181
153 166  181
154 167  181
153 167  181
154 167  181
154 167  181
156 168  181
155 168  181
155 167  181
155 168  181
155 168  181
156 168  181
155 167  181
155 167  181
155 167  181
155 167  181
155 167  181
155 168  181
155 167  181
155 168  181
155 167  181
155 167  181
155 167  181
155 167  181
155 167  181
154 167  181
155 167  181
155 167  181
155 167  181
155 167  181
154 167  181
155 167  181
155 167  181
155 167  181
155 167  181
155 167  181
155 167  181
155 167  181
154 167  181
155 167  181
155 167  181
155 167  181
155 167  181
154 167  181
155 167  181
155 167  181
155 167  181
155 167  181
155 167  181
155 167  181
155 167  181
155 167  181
155 167  181
155 168  181
155 167  181
155 168  181
155 167  181
155 167  181
155 167  181
155 168  181
155 167  181
155 167  181
155 167  181
156 168  181
155 168  181
156 168  181
155 168  181
156 168  181
156 168  181
156 168  181
159 169  181
159 169  181
159 169  181
159 169  181
159 169  181
159 169  181
159 169  181
158 169  181
159 169  181
158 169  181
159 169  181
158 169  181
159 169  181
158 169  181
158 169  181
158 169  181
159 169  181
158 169  181
158 169  181
158 169  181
158 169  181
158 169  181
158 169  181
159 169  181
158 169  181
158 169  181
158 169  181
158 169  181
158 169  181
158 169  181
158 169  181
158 169  181
158 169  181
158 169  181
158 169  181
159 169  181
159 169  181
159 169  181
158 169  181
158 169  181
158 169  181
158 169  181
158 169  181
158 169  181
159 169  181
159 169  181
158 169  181
159 169  181
158 169  181
159 169  181
158 169  181
158 169  181
159 169  181
159 169  181
158 169  181
158 169  181
158 169  181
159 169  181
158 169  181
159 169  181
159 169  181
159 169  181
159 169  181
159 169  181
163 171  181
163 171  181
163 171  181
163 171  181
163 171  181
162 171  181
162 171  181
162 171  181
163 171  181
162 171  181
163 171  181
162 171  181
162 171  181
162 171  181
162 171  181
162 171  181
161 170  181
162 171  181
162 171  181
163 171  181
163 171  181
162 171  181
162 171  181
163 171  181
163 171  181
162 171  181
162 170  181
163 171  181
162 171  181
162 171  181
162 171  181
162 171  181
162 171  181
162 171  181
162 171  181
163 171  181
162 171  181
162 171  181
162 171  181
162 171  181
161 170  181
163 171  181
162 171  181
162 171  181
163 171  181
162 171  181
162 171  181
162 171  181
162 171  181
162 171  181
162 171  181
162 171  181
163 171  181
162 171  181
162 171  181
162 171  181
162 171  181
162 171  181
162 171  181
163 171  181
163 171  181
163 171  181
163 171  181
163 171  181
167 173  181
168 174  181
167 173  181
167 173  181
167 173  181
167 173  181
167 173  181
167 173  181
167 173  181
167 173  181
167 173  181
166 173  181
167 173  181
166 173  181
167 173  181
166 173  181
167 173  181
166 173  181
167 173  181
167 173  181
167 173  181
167 173  181
166 173  181
166 173  181
166 173  181
166 173  181
167 173  181
167 173  181
166 173  181
166 173  181
166 173  181
166 173  181
167 173  181
166 173  181
166 173  181
166 173  181
166 173  181
167 173  181
167 173  181
167 173  181
167 173  181
166 173  181
166 173  181
166 173  181
166 173  181
166 173  181
166 173  181
167 173  181
167 173  181
166 173  181
167 173  181
167 173  181
167 173  181
167 173  181
167 173  181
167 173  181
167 173  181
167 173  181
167 173  181
167 173  181
167 173  181
166 173  181
167 173  181
167 173  181
172 176  181
171 175  181
171 175  181
172 176  181
172 175  181
171 175  181
172 176  181
172 176  181
172 176  181
171 175  181
171 175  181
171 175  181
171 175  181
171 175  181
171 175  181
171 175  181
172 176  181
171 175  181
171 175  181
171 175  181
171 175  181
171 175  181
171 175  181
171 175  181
171 175  181
171 175  181
170 175  181
171 175  181
171 175  181
171 175  181
171 175  181
171 175  181
171 175  181
172 176  181
172 175  181
171 175  181
171 175  181
171 175  181
171 175  181
171 175  181
172 176  181
171 175  181
171 175  181
172 175  181
171 175  181
172 176  181
171 175  181
172 175  181
171 175  181
171 175  181
171 175  181
171 175  181
172 176  181
172 176  181
171 175  181
172 176  181
172 176  181
171 175  181
171 175  181
172 176  181
172 176  181
171 175  181
172 176  181
172 175  181
176 178  181
176 178  181
176 178  181
176 178  181
176 178  181
176 178  181
176 178  181
176 178  181
176 178  181
177 178  181
177 178  181
177 178  181
176 178  181
176 178  181
176 177  181
177 178  181
176 178  181
176 178  181
176 178  181
177 178  181
177 178  181
176 178  181
176 178  181
176 178  181
176 177  181
176 178  181
176 178  181
176 178  181
176 178  181
176 178  181
176 178  181
176 178  181
176 178  181
175 177  181
177 178  181
176 178  181
176 178  181
177 178  181
176 178  181
177 178  181
176 178  181
175 177  181
177 178  181
175 177  181
175 177  181
176 178  181
176 178  181
176 177  181
177 178  181
176 178  181
176 178  181
176 178  181
176 178  181
176 178  181
177 178  181
176 178  181
176 178  181
177 178  181
177 178  181
177 178  181
176 178  181
176 178  181
176 178  181
176 178  181
181 180  181
181 180  181
182 181  181
182 181  181
181 180  181
181 180  181
181 180  181
181 180  181
181 180  181
181 180  181
181 180  181
181 180  181
182 181  181
181 180  181
182 181  181
181 180  181
180 180  181
181 180  181
182 181  181
181 180  181
181 180  181
180 180  181
181 180  181
181 180  181
181 180  181
181 180  181
181 180  181
180 180  181
181 180  181
181 180  181
181 180  181
181 180  181
181 180  181
181 180  181
182 181  181
180 180  181
181 180  181
181 180  181
181 180  181
181 180  181
181 180  181
181 180  181
180 180  181
181 180  181
181 180  181
181 180  181
181 180  181
181 180  181
181 180  181
180 180  181
181 180  181
181 180  181
182 181  181
182 181  181
181 180  181
181 180  181
182 181  181
182 181  181
181 180  181
181 180  181
181 180  181
182 181  181
181 180  181
181 180  181
148 149  151
167 166  166
140 138  141
155 155  156
153 150  152
169 167  166
168 167  166
173 172  171
161 161  161
169 167  166
154 155  156
167 166  166
147 148  151
179 177  176
168 167  166
167 166  166
139 142  145
160 160  161
167 166  166
147 149  151
169 167  166
173 172  171
185 182  181
160 160  161
160 160  161
168 167  166
173 172  171
161 161  161
162 161  161
168 167  166
168 167  166
130 134  140
161 161  161
154 155  156
174 172  171
168 167  166
161 161  161
179 177  176
161 161  161
167 166  166
172 171  171
168 167  166
139 142  145
152 154  156
166 166  166
147 149  151
159 160  161
168 167  166
155 155  156
173 172  171
173 172  171
160 160  161
154 155  156
149 149  151
146 148  151
173 172  171
161 161  161
173 172  171
174 172  171
167 166  166
173 172  171
146 148  151
167 166  166
179 177  176
96 101  111
65 66  87
37 50  57
44 72  72
27 59  73
48 90  80
41 73  75
76 94  99
85 97  81
97 82  78
82 78  80
76 77  78
78 101  90
74 100  84
108 112  119
97 103  113
113 120  128
106 113  121
105 108  114
116 122  128
117 89  91
111 88  91
114 88  91
110 79  82
100 85  88
113 106  112
107 114  123
118 130  139
70 70  99
75 79  111
86 90  110
75 77  107
66 62  95
89 90  110
104 109  118
98 102  112
113 118  130
84 93  116
87 97  120
91 107  140
74 94  136
92 102  127
86 102  129
89 104  129
88 95  106
72 89  113
62 82  112
83 100  129
62 81  111
70 94  135
73 94  120
66 90  122
75 90  106
87 99  110
97 106  113
109 114  122
110 115  121
109 115  122
63 70  74
59 69  74
96 103  110
78 87  92
89 99  105
75 87  87
100 109  117
111 126  124
73 101  83
76 123  80
55 110  58
71 123  77
65 127  68
67 133  67
72 144  76
68 133  67
73 142  79
72 142  78
73 143  79
71 139  74
51 99  62
85 127  90
82 102  88
112 118  122
108 116  122
109 115  122
109 115  125
106 115  122
107 115  122
113 120  128
107 114  121
110 115  121
110 120  122
116 121  128
97 102  110
96 101  108
109 116  123
96 103  114
100 103  112
67 74  100
74 85  121
61 68  100
67 76  126
32 44  87
59 68  124
51 60  93
57 69  118
59 68  121
52 67  130
54 66  115
103 110  113
113 124  104
93 101  74
129 133  85
105 108  49
97 104  81
124 130  70
124 131  70
126 131  61
116 122  80
137 142  70
127 132  70
125 128  87
130 133  85
107 113  121
114 120  128
98 103  107
108 114  121
91 96  104
110 115  121
114 120  128
98 108  105
105 113  121
79 90  84
77 112  78
81 111  91
79 119  88
50 99  49
72 107  74
51 80  53
61 105  63
78 109  81
79 127  79
76 110  83
70 101  84
78 108  81
81 107  89
104 108  117
103 109  116
103 114  115
97 110  108
98 109  111
103 111  116
83 88  91
110 117  122
102 108  108
105 113  115
114 120  128
113 120  128
103 106  114
108 114  121
112 118  124
102 109  108
104 110  117
105 110  116
102 107  108
98 106  108
102 105  102
92 93  94
84 87  95
76 76  90
96 98  108
102 104  105
91 94  95
105 108  108
77 72  95
76 72  77
94 92  68
106 104  70
78 73  73
66 62  61
84 81  79
80 76  68
78 84  73
86 83  77
96 97  83
86 75  83
93 94  98
92 94  97
88 88  91
104 108  112
109 116  121
109 116  121
110 116  121
96 106  108
107 115  121
110 114  119
103 111  114
101 106  112
97 102  107
109 114  122
111 117  124
95 103  109
104 115  117
98 107  108
92 96  102
95 103  108
105 113  121
111 119  128
108 113  114
105 112  115
112 120  128
116 120  124
101 110  114
108 117  122
106 113  121
113 118  124
108 114  122
100 104  112
103 112  113
104 115  112
115 121  128
97 100  105
98 101  105
108 112  118
94 96  99
107 112  118
111 117  124
105 115  116
75 76  85
72 66  84
71 55  84
48 11  62
47 10  61
50 11  62
50 11  62
48 10  57
49 11  63
50 11  59
54 12  68
50 11  67
46 10  56
54 12  66
46 10  58
36 8  38
40 9  50
47 10  55
47 10  59
47 10  59
51 11  61
52 11  64
51 11  63
51 11  64
83 79  97
93 96  97
100 104  111
96 98  101
103 110  119
103 105  107
110 114  118
104 109  114
104 110  118
107 112  119
113 118  124
110 116  118
88 98  93
106 112  119
100 107  114
95 99  103
102 106  111
101 107  115
108 114  122
114 120  128
94 98  103
106 110  114
107 113  122
91 96  104
93 97  101
104 108  115
110 116  123
109 111  114
97 101  110
92 97  103
100 103  108
92 95  100
106 113  122
112 118  124
111 117  124
95 97  101
88 87  95
105 109  114
95 98  105
84 89  94
79 82  85
82 80  81
81 81  86
89 88  93
76 78  82
54 54  62
84 82  92
73 72  81
71 70  71
65 56  71
40 10  50
56 55  55
55 49  60
59 54  68
72 70  78
65 56  67
72 73  75
62 62  66
57 45  63
86 87  92
67 69  74
97 100  100
96 97  99
70 72  76
99 104  112
80 83  86
100 106  110
90 94  100
111 119  128
111 116  118
91 95  95
103 105  108
102 108  110
97 100  103
102 110  114
103 109  116
106 109  113
101 109  114
98 102  103
109 113  118
97 100  105
109 117  121
106 109  114
100 105  110
101 105  110
103 107  112
89 94  101
114 117  121
109 115  121
99 106  115
92 95  97
104 108  115
105 110  116
112 119  128
105 108  110
99 102  107
110 117  124
100 103  110
86 90  93
91 93  97
104 106  108
92 101  99
106 112  114
101 105  111
97 100  101
104 108  118
100 101  105
110 113  118
100 105  111
105 109  115
99 107  111
90 90  96
89 90  98
99 104  105
89 94  96
96 99  103
97 103  108
105 110  116
93 97  103
94 96  100
88 93  95
93 99  100
95 98  96
91 93  97
84 86  92
100 102  108
101 105  108
104 106  111
111 119  128
104 110  116
96 99  103
104 110  118
102 107  111
100 100  103
84 89  83
88 97  100
98 101  105
109 115  121
93 99  99
92 93  90
89 93  95
88 88  86
90 91  95
108 114  121
94 100  99
100 107  114
97 103  110
114 117  121
108 112  112
110 116  123
102 103  108
106 113  121
104 109  110
105 108  109
89 95  99
97 100  103
87 92  90
98 98  103
98 102  107
101 107  115
104 107  113
98 105  107
104 107  110
100 102  105
103 110  112
101 104  103
95 100  101
101 107  110
101 109  113
103 108  110
89 91  96
97 103  110
108 113  119
97 99  95
92 99  99
80 84  76
104 107  110
93 93  95
110 117  121
93 97  104
105 109  110
76 80  87
88 93  96
95 98  103
102 106  110
99 100  103
114 117  121
94 103  109
96 100  105
94 100  103
84 87  89
92 100  98
81 85  84
93 95  100
88 96  96
108 115  123
91 95  98
95 96  99
98 101  105
77 80  83
96 98  101
110 114  118
104 106  108
64 64  61
102 105  105
95 99  101
105 105  107
96 99  103
101 104  110
89 93  95
86 88  88
105 106  106
69 72  67
89 90  90
87 91  91
100 105  110
97 98  99
97 99  97
95 99  97
79 79  82
80 83  83
78 81  85
101 104  105
103 110  110
70 73  75
98 101  103
100 102  103
83 89  88
98 100  104
94 97  99
104 107  110
105 106  107
82 82  81
100 102  105
82 91  87
98 101  105
105 112  114
80 82  75
93 98  103
94 99  103
79 82  84
91 95  97
77 82  81
74 79  76
101 103  107
103 104  107
93 95  92
103 107  112
88 92  91
82 87  92
87 88  88
104 108  110
90 95  95
102 109  114
87 95  95
84 87  88
86 90  94
89 93  95
90 95  99
88 95  95
67 76  74
85 95  50
104 129  44
76 83  61
98 113  58
100 113  73
75 86  41
83 91  73
69 81  41
102 114  71
71 85  41
90 104  51
88 103  52
91 107  59
75 83  53
50 60  8
95 103  81
83 88  70
78 84  67
99 107  90
85 98  67
76 84  55
93 100  76
69 74  61
81 86  75
68 74  57
53 62  30
91 98  83
76 79  80
98 102  95
87 92  94
85 88  85
85 90  90
92 98  99
89 91  90
77 76  75
52 53  49
90 97  99
66 65  64
88 94  95
57 60  60
76 81  83
89 93  95
79 84  90
101 103  105
64 70  64
81 84  81
21 28  22
53 57  45
75 78  83
89 91  94
82 86  83
58 64  57
66 66  67
70 72  75
44 47  45
60 64  64
94 96  99
80 82  81
64 66  57
73 76  75
68 69  70
52 53  53
65 74  70
65 69  70
99 127  18
107 138  20
80 99  14
92 114  17
106 132  19
85 112  15
91 117  17
104 132  19
97 123  17
97 127  18
101 128  18
84 112  14
77 96  14
104 131  19
77 100  14
105 132  19
89 112  16
91 116  17
101 129  18
74 95  14
76 99  15
68 90  12
89 112  16
75 96  13
58 80  10
93 118  17
87 106  15
81 100  13
93 117  16
96 121  17
73 89  42
78 101  14
54 62  41
82 95  50
63 73  60
57 60  57
80 79  75
69 77  71
70 74  73
52 55  49
48 49  45
51 57  57
47 48  35
30 29  28
62 63  64
14 17  2
46 54  45
64 62  60
51 48  45
66 66  67
49 51  49
53 55  57
61 62  65
70 71  72
78 79  80
61 66  62
67 66  67
39 39  40
0 0  0
53 58  53
54 55  57
44 44  45
44 44  45
33 30  28
84 109  16
84 110  16
89 114  15
98 126  18
56 82  11
83 107  16
89 114  16
90 114  16
96 124  18
103 134  20
86 111  16
68 90  13
85 109  16
83 104  15
72 94  13
64 84  11
79 103  15
67 91  12
88 115  17
54 71  10
66 90  12
59 75  10
62 80  13
78 91  13
73 94  12
59 83  11
84 107  15
74 95  14
38 67  7
61 78  11
41 56  6
47 60  9
53 69  10
32 40  5
66 73  57
67 73  80
0 0  0
40 40  40
38 39  40
12 2  17
48 52  57
39 40  40
31 28  31
0 0  0
22 21  20
52 51  49
55 56  57
48 52  57
32 30  28
33 31  28
15 18  2
0 0  0
49 49  49
35 8  53
50 44  59
39 37  35
49 23  71
45 40  52
55 25  78
61 14  90
47 30  66
56 45  66
47 12  67
57 14  90
68 85  11
70 89  13
76 96  14
74 101  13
63 77  57
44 64  23
26 36  5
74 97  14
73 93  13
45 58  8
52 74  9
48 62  9
30 40  6
76 99  15
54 70  10
66 82  58
69 87  12
62 78  11
44 57  8
76 90  58
24 30  4
71 83  64
60 76  11
27 38  14
18 24  2
58 67  64
20 34  6
18 23  2
40 40  40
0 0  0
80 92  103
71 80  85
32 36  28
18 23  3
56 67  65
70 79  82
12 22  12
65 72  80
49 51  59
31 27  37
64 71  80
81 85  93
68 72  78
51 59  64
62 66  64
70 78  85
78 77  101
88 77  111
54 30  76
77 58  93
60 30  88
58 14  86
67 16  102
69 17  105
65 16  99
64 15  96
66 16  104
66 16  102
70 17  107
62 15  86
69 17  105
63 15  96
65 16  102
64 16  98
104 118  134
79 92  100
119 134  151
94 107  121
110 121  121
79 89  90
105 116  128
83 101  87
79 88  94
104 120  129
119 135  146
88 97  101
93 106  114
101 115  114
103 117  131
108 123  135
96 110  117
93 101  115
99 109  111
105 119  122
121 136  154
108 122  134
51 56  57
111 125  141
107 118  124
119 133  148
115 128  140
101 117  128
104 113  121
106 122  140
96 113  121
109 117  130
102 118  132
105 118  121
71 82  81
88 107  111
78 86  92
82 91  91
97 109  122
95 106  121
95 107  121
89 98  110
75 76  92
64 30  88
58 14  87
60 14  93
66 15  95
58 14  88
53 13  77
62 15  93
52 13  81
63 16  92
65 16  97
66 16  99
64 15  92
68 16  99
63 16  94
67 16  94
66 15  96
64 15  96
59 14  91
65 16  94
58 14  86
67 16  97
86 98  101
124 145  161
119 129  143
101 114  124
114 129  146
116 122  137
128 146  162
122 140  152
108 124  141
121 137  159
112 125  145
123 139  159
113 129  149
101 114  125
120 136  156
129 146  169
95 109  123
124 139  158
127 145  162
124 143  163
130 143  161
131 148  171
133 149  171
123 139  156
113 127  145
93 104  116
116 128  146
107 124  141
110 120  136
115 124  137
122 136  156
102 117  134
119 132  147
112 126  146
111 123  140
92 106  109
118 134  149
118 133  151
121 132  147
104 111  129
117 131  151
107 122  136
110 121  138
90 87  119
59 14  86
51 12  83
59 14  90
41 11  64
53 13  76
56 14  86
59 14  87
58 14  86
57 14  86
53 13  78
41 10  56
65 15  93
56 13  83
64 15  96
49 12  75
59 14  93
60 15  93
64 16  94
67 16  101
65 16  99
116 130  148
123 137  156
119 134  141
124 136  154
136 156  181
132 150  174
120 137  159
112 125  145
117 131  149
121 137  146
106 117  131
116 131  153
110 122  141
114 126  143
122 139  157
130 145  167
118 137  154
135 152  174
94 109  124
128 145  166
122 140  162
123 138  159
118 131  148
118 132  152
129 143  161
128 144  166
128 146  167
120 132  148
133 148  168
112 124  141
130 149  171
131 145  164
110 123  143
126 141  159
122 135  154
130 145  164
118 134  157
121 139  162
108 118  131
122 135  151
129 145  167
112 126  147
127 142  156
127 143  164
127 144  166
125 143  166
100 108  122
64 56  88
83 81  111
64 42  85
44 10  64
53 13  80
66 50  92
55 13  84
56 13  83
45 11  69
50 12  75
50 12  73
42 10  64
41 10  58
53 13  80
54 13  79
47 11  73
53 12  75
130 148  172
113 133  152
133 149  171
130 148  172
124 139  164
122 137  158
123 137  157
125 143  167
102 116  121
123 141  164
115 131  149
126 147  167
120 135  157
123 141  165
130 148  171
119 132  151
110 123  134
108 118  138
113 130  149
105 120  134
128 147  172
120 137  158
122 139  162
140 158  181
114 126  144
128 142  161
118 135  156
119 136  166
118 137  161
115 131  157
121 139  161
94 106  123
108 121  141
120 135  157
117 133  155
129 145  167
124 142  166
117 131  153
86 96  103
128 142  164
106 120  142
113 126  143
106 117  134
114 129  149
102 110  129
120 133  151
115 127  147
114 130  136
109 124  144
112 127  136
113 130  148
89 101  119
100 108  124
107 117  137
104 117  135
65 78  84
74 79  97
31 7  48
84 98  112
81 82  101
96 102  121
83 86  109
61 60  86
52 41  65
119 137  162
115 135  156
123 141  164
133 150  174
126 143  167
135 155  181
125 145  163
124 140  163
126 144  167
122 146  164
119 135  157
121 137  156
134 152  176
129 146  170
131 148  171
123 137  157
130 147  169
126 146  171
120 135  151
126 142  164
94 105  125
115 129  151
127 140  172
120 135  158
110 122  143
129 143  162
138 156  181
122 132  147
126 147  171
127 142  161
124 137  160
105 119  135
119 132  153
103 123  139
131 146  167
113 126  148
110 125  147
97 109  132
116 131  153
116 136  149
113 129  153
122 135  147
113 131  152
115 128  145
115 128  137
113 129  154
96 109  130
110 122  143
114 128  146
100 112  132
111 124  140
109 123  143
119 132  152
109 118  143
90 102  118
100 110  132
97 109  130
78 89  106
72 84  93
92 102  121
59 81  116
94 104  135
80 96  171
63 75  149
133 151  172
129 147  172
132 149  171
135 155  181
118 134  156
137 154  176
134 152  176
116 133  153
139 155  176
123 138  153
128 148  174
105 118  145
127 141  163
112 122  143
121 138  163
123 139  161
117 129  144
128 143  166
118 134  158
127 144  171
125 145  165
124 141  163
119 138  155
117 138  152
133 154  181
125 143  166
119 138  159
102 125  135
122 139  164
117 132  147
135 155  181
132 149  171
125 149  166
115 130  157
114 128  149
120 138  161
113 123  144
126 144  166
123 138  161
117 134  157
134 154  181
136 153  176
114 132  152
132 154  173
124 143  160
122 139  162
129 147  171
115 129  147
102 116  135
106 115  135
116 132  183
112 133  194
85 104  175
81 101  185
99 115  176
67 87  176
83 102  186
76 99  191
71 96  195
66 90  207
60 83  193
65 89  207
58 85  188
63 87  201
128 146  169
133 152  176
131 155  173
124 148  164
138 156  181
130 148  171
128 144  168
121 139  161
129 145  166
134 154  181
131 146  168
133 152  176
125 144  160
125 150  160
134 150  171
120 138  155
136 153  176
126 142  164
121 135  159
123 140  162
130 146  166
132 149  165
132 151  176
136 155  181
114 138  157
132 151  176
135 155  181
99 117  122
129 147  171
127 145  174
112 128  142
116 134  153
131 152  172
107 122  153
124 139  163
136 154  172
121 141  155
126 146  173
119 145  157
131 149  171
135 152  176
134 152  176
134 151  174
104 122  158
89 109  175
109 127  179
101 121  173
85 107  206
55 77  172
54 78  174
60 84  196
63 89  202
55 76  180
60 84  186
64 89  198
59 83  196
57 84  183
64 89  207
63 87  201
63 87  197
64 89  198
59 82  191
62 85  196
59 78  178
124 144  162
117 138  152
130 150  171
123 150  165
113 129  151
138 155  172
122 142  165
128 144  168
124 146  167
124 144  163
130 149  174
124 140  164
137 156  181
131 147  173
115 135  154
134 154  181
136 153  176
124 140  161
122 139  162
128 147  171
121 142  163
125 145  162
139 157  181
124 142  167
126 144  163
120 142  162
120 135  163
126 143  163
127 141  158
127 149  170
125 146  159
121 142  163
123 142  157
122 140  162
119 133  155
124 150  164
124 140  163
107 122  148
131 146  166
129 152  168
125 142  158
130 149  171
84 101  172
57 82  180
47 69  157
56 77  177
53 74  175
60 87  192
61 85  191
59 83  186
47 72  149
66 91  207
61 83  191
57 80  190
55 77  177
62 85  196
57 79  180
49 72  163
56 78  181
53 74  177
62 86  199
63 84  196
58 80  184
56 78  184
