P3
 64 36 
255
221 235  255
220 235  255
221 235  255
221 235  255
220 235  255
221 235  255
220 235  255
220 235  255
220 235  255
220 235  255
221 235  255
220 235  255
221 235  255
220 235  255
220 235  255
220 235  255
220 235  255
220 235  255
220 235  255
221 235  255
220 235  255
221 235  255
220 235  255
220 235  255
220 235  255
220 235  255
221 235  255
221 235  255
220 235  255
220 235  255
221 235  255
220 235  255
221 235  255
220 235  255
221 235  255
220 235  255
221 235  255
220 235  255
220 235  255
221 235  255
220 235  255
220 235  255
220 235  255
220 235  255
221 235  255
220 235  255
221 235  255
220 235  255
220 235  255
220 235  255
221 235  255
220 235  255
220 235  255
221 235  255
220 235  255
221 235  255
221 235  255
221 235  255
220 235  255
221 235  255
220 235  255
221 235  255
221 235  255
220 235  255
221 235  255
221 235  255
221 235  255
221 235  255
221 235  255
221 235  255
221 235  255
221 235  255
221 235  255
221 235  255
221 235  255
221 235  255
221 235  255
221 235  255
221 235  255
221 235  255
221 235  255
221 235  255
221 235  255
221 235  255
221 235  255
221 235  255
221 235  255
221 235  255
221 235  255
221 235  255
221 235  255
221 235  255
221 235  255
221 235  255
221 235  255
221 235  255
221 235  255
221 235  255
221 235  255
221 235  255
221 235  255
221 235  255
221 235  255
221 235  255
221 235  255
221 235  255
221 235  255
221 235  255
221 235  255
221 235  255
221 235  255
221 235  255
221 235  255
221 235  255
221 235  255
221 235  255
221 235  255
221 235  255
221 235  255
221 235  255
221 235  255
221 235  255
221 235  255
221 235  255
221 235  255
221 235  255
221 235  255
221 235  255
210 222  238
210 222  238
206 216  231
207 218  233
203 213  227
204 214  228
199 208  221
207 218  233
205 215  230
205 215  230
201 211  226
198 206  218
201 211  224
203 214  228
192 200  211
203 214  228
199 208  221
194 203  215
201 210  224
196 205  217
203 214  228
202 212  227
195 203  215
197 206  220
197 206  218
198 208  221
197 206  220
203 213  228
191 199  211
196 205  218
200 210  224
190 197  207
195 204  217
196 206  218
199 209  223
197 207  220
197 206  218
195 203  215
192 200  211
194 203  215
194 203  215
204 215  230
196 205  217
204 214  228
191 199  211
197 206  218
199 209  223
200 209  223
204 215  230
198 207  220
207 217  233
202 212  226
202 212  226
203 213  227
203 213  227
207 218  233
211 223  240
205 216  231
205 215  230
201 211  224
211 223  240
210 222  238
205 215  230
209 220  236
165 172  181
165 172  181
165 172  181
163 171  181
164 172  181
163 171  181
163 171  181
163 171  181
163 171  181
163 171  181
162 171  181
162 171  181
162 171  181
162 171  181
162 171  181
163 171  181
162 171  181
162 171  181
162 170  181
161 170  181
161 170  181
161 170  181
161 170  181
161 170  181
161 170  181
161 170  181
161 170  181
161 170  181
161 170  181
161 170  181
161 170  181
161 170  181
161 170  181
161 170  181
161 170  181
161 170  181
161 170  181
162 171  181
162 171  181
161 170  181
161 170  181
162 171  181
162 171  181
162 171  181
162 171  181
162 171  181
162 171  181
162 171  181
162 171  181
163 171  181
162 171  181
162 171  181
163 171  181
163 171  181
163 171  181
164 172  181
163 171  181
164 172  181
164 172  181
164 171  181
164 172  181
165 172  181
165 172  181
165 172  181
157 168  181
157 168  181
157 168  181
156 168  181
156 168  181
156 168  181
156 168  181
156 168  181
156 168  181
156 168  181
155 167  181
155 168  181
155 167  181
155 167  181
155 167  181
155 167  181
155 167  181
155 167  181
155 167  181
155 167  181
155 167  181
155 167  181
154 167  181
154 167  181
155 167  181
155 167  181
154 167  181
155 167  181
154 167  181
154 167  181
155 167  181
154 167  181
154 167  181
154 167  181
154 167  181
154 167  181
155 167  181
154 167  181
154 167  181
154 167  181
155 167  181
155 167  181
155 167  181
155 167  181
154 167  181
155 167  181
155 167  181
155 167  181
155 167  181
155 167  181
155 167  181
155 167  181
155 168  181
156 168  181
156 168  181
156 168  181
156 168  181
156 168  181
156 168  181
157 168  181
156 168  181
157 168  181
156 168  181
157 168  181
153 167  181
153 166  181
153 166  181
153 166  181
153 166  181
153 166  181
153 166  181
153 166  181
152 166  181
152 166  181
152 166  181
152 166  181
152 166  181
152 166  181
152 166  181
152 166  181
152 166  181
152 166  181
152 166  181
152 166  181
152 166  181
152 166  181
152 166  181
152 166  181
152 166  181
152 166  181
152 166  181
152 166  181
152 166  181
151 166  181
151 166  181
152 166  181
151 166  181
151 166  181
151 166  181
152 166  181
152 166  181
152 166  181
152 166  181
152 166  181
152 166  181
152 166  181
152 166  181
152 166  181
152 166  181
152 166  181
152 166  181
152 166  181
152 166  181
152 166  181
152 166  181
152 166  181
152 166  181
152 166  181
153 166  181
153 166  181
153 166  181
153 166  181
153 166  181
153 166  181
153 166  181
153 166  181
153 167  181
153 167  181
153 166  181
153 166  181
152 166  181
152 166  181
152 166  181
152 166  181
152 166  181
152 166  181
152 166  181
152 166  181
152 166  181
152 166  181
152 166  181
152 166  181
152 166  181
151 166  181
151 166  181
151 166  181
151 166  181
151 166  181
151 166  181
151 166  181
151 166  181
151 166  181
151 166  181
151 165  181
151 165  181
151 165  181
151 165  181
151 165  181
151 165  181
151 165  181
151 165  181
151 165  181
151 165  181
151 165  181
151 165  181
151 166  181
151 166  181
151 166  181
151 166  181
151 166  181
151 166  181
151 166  181
151 166  181
151 166  181
151 166  181
152 166  181
152 166  181
152 166  181
152 166  181
152 166  181
152 166  181
152 166  181
152 166  181
152 166  181
152 166  181
152 166  181
152 166  181
152 166  181
152 166  181
153 166  181
153 166  181
153 166  181
154 167  181
154 167  181
153 167  181
153 167  181
153 167  181
153 166  181
153 167  181
153 166  181
153 166  181
153 166  181
153 166  181
153 166  181
153 166  181
153 166  181
153 166  181
153 166  181
153 166  181
153 166  181
153 166  181
153 166  181
152 166  181
153 166  181
152 166  181
152 166  181
152 166  181
152 166  181
152 166  181
152 166  181
152 166  181
152 166  181
152 166  181
152 166  181
152 166  181
152 166  181
152 166  181
152 166  181
152 166  181
152 166  181
152 166  181
152 166  181
152 166  181
152 166  181
152 166  181
153 166  181
153 166  181
153 166  181
153 166  181
153 166  181
153 166  181
153 166  181
153 166  181
153 166  181
153 166  181
153 166  181
153 166  181
153 166  181
153 166  181
153 166  181
153 166  181
153 167  181
153 167  181
154 167  181
154 167  181
154 167  181
156 168  181
156 168  181
156 168  181
156 168  181
156 168  181
155 168  181
155 168  181
155 168  181
155 168  181
155 168  181
155 167  181
155 167  181
155 167  181
155 167  181
155 167  181
155 167  181
155 167  181
155 167  181
155 167  181
155 167  181
155 167  181
155 167  181
155 167  181
155 167  181
155 167  181
155 167  181
155 167  181
155 167  181
155 167  181
155 167  181
155 167  181
155 167  181
155 167  181
155 167  181
155 167  181
155 167  181
155 167  181
155 167  181
155 167  181
155 167  181
155 167  181
155 167  181
155 167  181
155 167  181
155 167  181
155 167  181
155 167  181
155 167  181
155 167  181
155 167  181
155 167  181
155 168  181
155 167  181
155 168  181
155 167  181
155 168  181
156 168  181
156 168  181
156 168  181
156 168  181
156 168  181
156 168  181
156 168  181
156 168  181
159 169  181
159 169  181
159 169  181
159 169  181
159 169  181
159 169  181
159 169  181
159 169  181
158 169  181
159 169  181
159 169  181
158 169  181
159 169  181
158 169  181
158 169  181
158 169  181
158 169  181
158 169  181
158 169  181
158 169  181
158 169  181
158 169  181
158 169  181
158 169  181
158 169  181
158 169  181
158 169  181
158 169  181
158 169  181
158 169  181
158 169  181
158 169  181
158 169  181
158 169  181
158 169  181
158 169  181
158 169  181
158 169  181
158 169  181
158 169  181
158 169  181
158 169  181
158 169  181
158 169  181
158 169  181
158 169  181
158 169  181
158 169  181
158 169  181
159 169  181
158 169  181
159 169  181
158 169  181
158 169  181
159 169  181
158 169  181
159 169  181
158 169  181
159 169  181
159 169  181
159 169  181
159 169  181
159 169  181
159 169  181
163 171  181
163 171  181
162 171  181
163 171  181
163 171  181
163 171  181
163 171  181
163 171  181
162 171  181
163 171  181
163 171  181
162 171  181
162 171  181
162 171  181
162 171  181
162 171  181
162 171  181
162 171  181
162 171  181
162 171  181
162 171  181
162 171  181
162 171  181
162 171  181
162 171  181
162 171  181
162 171  181
162 171  181
162 171  181
162 171  181
162 171  181
162 171  181
162 171  181
162 171  181
162 171  181
162 171  181
162 171  181
162 171  181
162 171  181
162 171  181
162 171  181
162 171  181
162 171  181
162 171  181
162 171  181
162 171  181
162 171  181
162 171  181
162 171  181
163 171  181
162 171  181
162 171  181
163 171  181
163 171  181
163 171  181
162 171  181
163 171  181
162 171  181
162 171  181
163 171  181
163 171  181
163 171  181
163 171  181
163 171  181
167 173  181
167 173  181
167 173  181
167 173  181
167 173  181
167 173  181
167 173  181
167 173  181
167 173  181
167 173  181
167 173  181
167 173  181
167 173  181
167 173  181
167 173  181
167 173  181
167 173  181
166 173  181
166 173  181
166 173  181
166 173  181
166 173  181
166 173  181
166 173  181
167 173  181
167 173  181
166 173  181
166 173  181
167 173  181
166 173  181
166 173  181
166 173  181
166 173  181
166 173  181
166 173  181
167 173  181
166 173  181
166 173  181
167 173  181
166 173  181
167 173  181
167 173  181
166 173  181
167 173  181
167 173  181
167 173  181
166 173  181
167 173  181
167 173  181
167 173  181
167 173  181
167 173  181
167 173  181
167 173  181
167 173  181
167 173  181
167 173  181
167 173  181
167 173  181
167 173  181
167 173  181
167 173  181
167 173  181
167 173  181
172 175  181
172 176  181
171 175  181
172 176  181
172 175  181
172 175  181
171 175  181
171 175  181
171 175  181
172 175  181
172 175  181
171 175  181
171 175  181
171 175  181
171 175  181
171 175  181
171 175  181
172 175  181
171 175  181
171 175  181
171 175  181
171 175  181
171 175  181
171 175  181
171 175  181
171 175  181
171 175  181
171 175  181
171 175  181
171 175  181
171 175  181
172 175  181
171 175  181
171 175  181
171 175  181
171 175  181
171 175  181
171 175  181
171 175  181
171 175  181
171 175  181
171 175  181
171 175  181
171 175  181
171 175  181
171 175  181
171 175  181
171 175  181
171 175  181
171 175  181
171 175  181
171 175  181
171 175  181
172 175  181
171 175  181
172 176  181
171 175  181
172 176  181
172 175  181
172 176  181
171 175  181
172 175  181
172 175  181
172 176  181
176 178  181
176 178  181
176 178  181
176 178  181
176 178  181
176 178  181
176 178  181
176 178  181
176 178  181
176 178  181
176 178  181
176 178  181
176 178  181
176 178  181
177 178  181
177 178  181
176 178  181
176 178  181
176 178  181
176 178  181
176 178  181
176 178  181
176 178  181
176 178  181
176 177  181
176 178  181
176 178  181
176 178  181
175 177  181
176 178  181
176 178  181
176 178  181
176 178  181
176 178  181
176 178  181
176 178  181
176 178  181
176 178  181
176 178  181
176 178  181
176 178  181
176 178  181
177 178  181
176 178  181
176 178  181
176 178  181
176 178  181
176 178  181
176 178  181
176 178  181
176 178  181
176 178  181
176 178  181
176 178  181
177 178  181
176 178  181
176 178  181
176 178  181
176 178  181
176 178  181
177 178  181
176 178  181
177 178  181
176 178  181
181 180  181
181 180  181
181 180  181
181 180  181
181 180  181
181 180  181
181 180  181
181 180  181
181 180  181
181 180  181
181 180  181
181 180  181
181 180  181
181 180  181
181 180  181
181 180  181
181 180  181
181 180  181
181 180  181
181 180  181
181 180  181
181 180  181
181 180  181
181 180  181
181 180  181
181 180  181
181 180  181
181 180  181
181 180  181
181 180  181
181 180  181
181 180  181
181 180  181
181 180  181
181 180  181
181 180  181
181 180  181
181 180  181
181 180  181
181 180  181
181 180  181
181 180  181
181 180  181
181 180  181
181 180  181
181 180  181
181 180  181
181 180  181
181 180  181
181 180  181
181 180  181
181 180  181
181 180  181
181 180  181
181 180  181
181 180  181
181 180  181
181 180  181
181 180  181
181 180  181
181 180  181
181 180  181
181 180  181
181 180  181
158 158  160
166 165  165
152 153  155
164 163  164
164 162  164
166 164  164
166 165  166
167 166  166
167 166  166
166 165  165
160 160  160
163 162  162
164 163  163
162 161  162
163 161  161
163 162  162
161 161  162
163 163  163
168 167  167
156 156  157
163 163  163
166 165  165
167 166  166
166 165  164
165 164  162
168 167  166
166 165  165
166 165  165
162 161  161
162 162  162
165 164  164
166 165  165
164 164  164
163 162  162
166 165  165
169 168  167
165 164  164
166 165  165
163 162  162
159 159  160
162 162  162
167 166  166
168 167  167
164 164  164
157 158  159
163 163  163
167 166  166
173 172  171
162 162  162
166 165  165
161 161  161
162 162  162
161 161  161
161 161  162
170 169  168
159 159  160
166 165  165
167 166  165
158 158  159
163 163  163
153 154  156
169 168  167
158 158  159
153 154  155
118 124  129
119 124  130
116 115  124
91 89  101
82 80  94
85 94  98
92 100  96
88 102  102
105 116  109
100 116  99
99 120  103
73 112  76
83 113  88
92 111  101
91 103  99
88 92  96
93 98  103
75 98  103
92 114  119
81 114  118
76 107  111
74 110  113
73 103  104
74 105  92
92 104  93
89 96  88
103 109  101
106 110  110
93 89  90
90 83  84
90 84  83
96 93  94
90 89  90
96 94  98
102 105  113
97 96  114
85 81  105
88 88  112
96 93  111
108 100  116
107 106  114
104 104  110
106 113  118
107 109  110
109 122  122
112 129  131
107 122  125
101 113  118
114 119  126
112 117  123
114 120  127
115 121  127
111 115  122
111 116  122
113 119  125
114 120  127
113 118  125
114 119  126
112 119  126
110 116  122
106 117  106
105 117  108
133 129  127
132 130  130
48 63  114
52 51  102
55 51  89
73 65  83
83 75  86
76 66  79
76 70  80
77 69  81
87 83  92
87 76  87
94 90  98
103 105  111
103 108  114
107 114  122
109 115  122
106 113  119
108 116  122
107 113  118
102 109  116
108 112  118
102 108  114
106 113  120
107 114  120
110 116  122
109 116  123
111 118  124
109 116  123
104 111  117
107 114  120
106 113  117
108 115  122
109 115  120
105 112  119
105 112  118
107 113  119
103 111  117
104 112  117
96 104  110
95 107  111
96 107  110
91 107  107
95 109  110
97 110  111
94 109  109
93 106  107
92 101  104
100 108  113
106 113  119
109 114  121
109 116  123
106 112  119
106 111  117
105 116  116
104 117  113
108 118  121
108 117  118
106 119  115
103 114  112
104 116  113
104 113  112
109 119  118
109 98  99
118 99  104
116 89  95
95 99  108
90 95  104
93 97  106
97 102  111
100 105  110
103 108  116
105 111  120
103 110  118
108 114  121
109 115  123
103 110  117
104 110  118
107 113  121
109 115  122
109 115  120
109 114  121
107 114  120
110 115  121
111 117  124
111 116  124
109 115  124
111 117  124
109 115  119
109 114  121
112 118  124
108 114  120
113 118  125
109 115  121
109 115  121
112 119  125
107 111  117
110 116  121
107 113  118
112 118  125
106 113  119
108 116  121
108 112  118
109 115  122
112 118  125
109 114  120
107 113  118
111 116  123
108 114  118
108 114  119
103 111  115
110 116  122
82 108  85
75 114  71
65 106  58
64 114  48
59 117  34
59 115  34
58 116  35
61 120  35
57 114  34
58 115  33
58 115  34
56 111  32
58 117  35
58 117  35
58 116  34
59 118  35
59 111  34
60 108  33
74 72  66
76 72  66
70 67  62
74 70  65
74 71  66
76 74  68
76 74  68
77 74  69
74 72  66
77 75  71
76 74  69
80 79  77
77 75  72
83 84  82
83 84  83
90 90  91
89 92  94
97 102  107
102 109  113
106 112  118
106 113  121
105 111  117
106 112  118
109 115  122
109 115  120
110 117  121
106 111  115
108 113  119
106 112  118
107 114  119
105 112  117
111 116  123
104 110  115
108 114  121
107 113  118
108 115  120
106 112  119
100 108  111
103 110  115
102 109  111
99 107  110
102 108  111
102 107  111
98 105  108
103 111  112
87 95  93
91 99  98
91 103  101
89 99  96
80 92  86
90 97  93
79 91  81
76 93  80
76 92  77
71 82  71
83 97  88
69 79  70
86 98  87
89 99  93
81 92  82
84 96  86
88 92  93
87 95  94
83 89  88
65 59  55
62 58  52
68 62  56
60 55  51
62 55  50
60 56  51
66 61  56
63 59  55
63 59  54
67 64  58
60 55  49
67 64  59
66 62  59
56 52  47
75 75  71
71 69  68
89 90  92
79 81  83
83 85  88
97 102  107
94 99  101
94 98  103
103 108  114
102 105  108
96 100  105
95 100  104
104 107  110
98 102  106
101 105  109
102 107  113
98 101  105
104 108  113
100 104  109
104 109  113
100 106  109
105 109  113
104 110  113
101 104  108
105 109  113
109 112  118
107 111  117
106 112  117
105 110  115
104 109  113
109 112  117
106 111  115
101 108  112
109 114  117
102 109  111
102 108  112
105 110  116
105 109  111
104 111  115
108 113  118
98 104  106
104 109  115
107 111  115
105 110  114
102 108  113
100 105  108
106 110  113
103 109  113
103 109  113
107 111  115
86 83  84
90 88  89
89 84  85
94 93  94
81 79  81
95 93  93
92 90  91
89 87  89
102 102  104
97 99  103
93 96  98
94 95  98
99 102  106
93 95  98
96 101  105
93 96  99
99 101  105
89 90  92
99 101  105
99 102  105
101 102  105
97 98  102
96 99  103
98 101  104
102 105  109
99 101  106
100 101  103
100 104  108
102 105  109
101 105  111
102 104  108
100 103  108
106 110  115
106 110  115
107 111  116
103 106  110
106 110  114
104 110  114
104 108  112
100 102  105
105 107  111
105 108  112
100 103  107
102 107  112
107 110  114
106 111  117
105 109  114
96 98  100
103 105  110
104 107  112
103 108  112
107 111  114
108 114  119
105 108  112
106 111  116
99 100  104
98 103  106
104 108  111
111 115  121
107 111  116
103 107  111
106 109  112
104 108  113
109 113  119
159 132  123
165 136  127
169 140  131
161 132  122
155 129  120
170 141  130
166 136  126
157 131  118
139 117  104
135 116  100
127 108  95
120 96  88
107 91  86
96 84  80
102 90  87
107 97  95
103 96  96
102 95  95
103 99  101
94 93  96
99 101  105
100 103  108
101 102  106
99 98  101
89 90  94
99 101  104
96 95  96
99 101  105
106 108  111
105 108  112
99 101  104
96 98  101
104 106  109
102 104  107
101 103  106
95 97  99
103 105  108
101 104  109
102 104  108
101 103  107
94 97  100
96 97  99
96 96  99
105 108  112
98 102  105
92 93  95
94 95  98
105 109  111
98 103  106
103 106  110
98 101  105
103 106  111
100 103  107
95 97  101
97 101  105
97 98  101
100 102  105
103 105  107
102 104  106
101 104  107
106 108  112
101 102  105
98 100  102
102 103  105
114 84  67
111 79  62
111 83  64
104 76  62
107 80  66
107 81  68
104 82  73
114 91  81
127 101  91
126 100  90
145 117  106
131 107  97
116 98  92
102 88  87
93 76  71
102 86  80
103 85  79
97 81  75
92 75  68
95 77  70
83 72  69
86 81  80
94 92  93
82 79  80
96 93  93
83 81  80
91 86  86
88 84  84
92 91  93
94 90  90
93 92  94
89 89  90
98 98  99
87 85  84
86 86  86
92 93  95
84 85  86
92 93  94
95 95  97
101 102  104
93 90  90
97 98  102
91 92  94
92 91  92
96 94  96
93 90  89
98 100  101
99 99  101
97 99  102
97 98  101
92 93  93
92 91  91
96 98  100
100 102  105
97 99  101
97 97  99
96 98  102
108 109  111
100 103  106
96 97  98
91 93  95
96 96  98
96 96  98
103 104  107
142 115  95
146 108  94
121 91  82
122 91  80
94 68  59
93 69  60
89 71  65
91 71  64
88 68  61
88 69  62
89 72  65
80 68  63
85 74  69
81 67  61
67 59  55
74 67  64
80 74  73
67 64  62
71 69  69
87 86  86
83 80  81
88 85  85
84 81  80
76 72  70
83 83  85
78 77  79
79 77  76
81 75  73
82 80  80
81 80  80
83 81  82
82 81  81
78 78  79
85 85  83
89 89  91
92 91  92
89 87  87
86 84  85
85 84  85
95 96  99
86 81  81
88 85  85
93 93  94
97 98  100
86 86  87
81 77  76
88 87  88
83 83  84
86 85  86
88 88  89
86 88  89
86 85  85
87 87  87
93 94  95
80 79  78
85 84  84
88 87  89
89 88  90
92 94  97
94 94  95
79 77  76
89 88  88
85 86  86
92 92  94
202 181  185
199 176  178
201 179  181
198 173  174
198 172  172
187 162  158
195 171  171
171 148  145
185 161  159
159 136  134
152 131  128
132 113  109
118 101  95
95 80  77
84 69  65
89 76  72
63 56  55
73 68  66
69 65  64
65 64  63
72 69  69
81 79  78
75 74  75
71 69  68
72 69  67
71 69  68
81 78  77
77 72  71
75 70  68
79 74  75
79 75  74
75 73  72
83 82  82
80 80  80
84 79  78
75 73  71
76 74  73
69 65  61
81 77  76
75 73  72
72 69  70
77 76  77
72 70  67
74 73  72
78 76  76
78 76  75
70 66  65
68 67  67
78 73  72
78 77  77
75 73  72
79 77  78
72 69  66
75 74  75
86 86  87
84 83  82
80 78  78
71 69  68
82 83  83
75 73  72
77 77  75
65 63  62
80 81  81
84 83  83
153 133  131
146 129  128
153 131  126
140 124  123
146 129  130
126 116  123
140 124  127
136 124  127
140 125  129
137 121  125
138 124  125
136 121  122
127 114  115
114 103  104
108 95  94
84 69  67
68 59  58
37 34  32
62 61  62
49 45  45
49 47  46
52 52  52
55 51  49
40 38  37
51 48  46
47 45  44
39 36  34
40 37  38
59 57  59
49 49  48
48 47  47
52 49  52
48 45  44
50 48  49
55 55  58
57 56  55
44 40  37
56 54  51
47 47  46
52 52  53
42 40  40
57 56  56
42 41  40
57 57  58
53 53  55
50 46  44
45 45  44
59 58  59
52 50  51
66 68  70
44 40  38
54 53  56
52 50  48
57 57  58
43 43  41
53 52  51
53 53  52
56 56  57
61 62  64
44 47  49
68 70  72
64 66  68
60 60  61
58 59  61
117 103  106
120 106  108
114 103  104
117 103  105
124 107  109
123 109  110
114 98  98
109 95  96
112 97  98
110 99  101
100 89  90
100 92  94
95 90  93
93 88  91
90 90  95
75 76  81
76 79  84
75 76  82
84 83  88
72 74  77
69 68  70
77 75  81
76 82  91
71 72  77
83 87  93
79 83  90
80 85  88
76 76  80
71 73  79
86 91  99
81 85  92
78 81  88
78 82  89
75 79  84
70 72  74
69 73  80
77 78  83
77 81  87
79 84  91
75 77  81
93 99  106
74 76  80
82 87  94
80 84  91
86 92  101
86 87  92
65 67  68
87 93  100
81 84  90
76 78  83
93 100  109
92 99  108
85 91  99
87 92  99
86 89  96
69 71  76
90 97  109
75 78  84
94 102  111
86 91  99
75 80  84
84 90  98
83 87  94
93 99  108
86 74  75
92 92  100
91 79  81
91 84  89
100 94  99
92 89  95
98 96  102
97 99  109
88 92  97
89 91  98
92 95  105
91 96  105
80 77  82
97 101  111
103 109  121
97 102  111
98 100  108
92 95  102
93 95  103
102 103  114
111 114  123
108 113  125
100 106  116
100 103  112
100 103  110
103 111  123
102 110  122
92 97  106
99 103  112
101 106  116
104 110  123
107 116  127
105 112  123
103 110  120
103 108  119
101 108  119
109 116  128
108 114  125
96 104  115
113 119  132
109 119  133
105 111  121
97 100  108
107 115  128
100 108  120
115 126  142
118 132  149
110 117  130
105 114  125
99 106  116
103 109  119
98 105  114
102 107  117
111 120  135
110 118  130
104 116  129
107 113  124
106 116  128
114 123  137
111 116  127
104 112  128
112 120  135
109 117  130
105 114  127
109 117  132
110 116  130
112 122  136
112 122  138
107 110  121
117 123  139
110 114  124
112 113  125
111 121  136
110 111  120
119 127  142
114 121  134
111 117  131
120 127  141
113 122  137
120 130  146
115 122  137
107 118  133
108 115  130
115 124  140
119 128  144
117 129  145
113 119  133
119 128  143
123 136  152
110 121  137
107 115  128
112 122  138
117 128  146
112 122  135
108 119  132
113 123  134
118 129  145
129 138  154
123 134  151
116 126  141
117 130  148
124 137  155
116 128  145
122 133  152
124 135  152
119 128  143
123 137  153
116 126  140
118 128  143
117 127  142
124 137  155
121 132  149
115 127  142
117 128  144
120 133  151
119 129  146
123 137  154
109 115  126
119 129  143
118 130  148
119 129  145
120 134  153
117 130  146
120 132  147
122 135  151
122 136  156
127 141  161
121 133  149
118 132  151
120 132  149
113 127  146
122 133  150
117 130  147
113 126  144
117 128  145
122 137  157
115 126  144
120 132  149
118 132  148
117 130  145
113 126  143
114 125  143
118 132  153
117 128  144
120 133  150
114 126  144
126 139  158
116 128  145
119 135  155
123 137  152
122 138  155
115 128  146
117 129  145
120 132  151
115 126  142
118 131  149
120 134  153
122 134  151
127 142  162
125 139  159
124 138  156
118 131  150
127 141  161
124 139  159
116 130  147
123 137  158
119 132  149
125 139  157
119 134  153
124 139  158
122 136  155
122 138  159
123 137  157
118 131  148
120 133  150
122 137  158
118 131  149
125 141  160
124 139  159
124 140  162
120 133  150
127 143  161
123 137  154
124 138  155
127 143  164
115 130  147
123 137  156
123 138  158
123 138  155
117 130  147
124 139  157
121 135  154
111 124  141
117 131  148
108 121  137
118 132  153
119 133  151
122 136  153
118 133  153
112 127  145
113 128  145
120 133  151
115 128  144
115 129  145
115 128  144
119 135  156
123 137  157
122 139  160
119 134  154
116 130  147
118 132  151
118 134  152
119 136  152
122 137  155
117 133  151
120 134  149
120 136  156
120 134  153
124 139  160
124 139  158
128 145  168
113 127  145
114 126  143
119 135  154
124 140  160
123 140  161
125 143  164
121 137  158
121 138  159
126 142  162
129 144  166
124 141  161
121 137  155
128 144  164
126 143  166
127 144  166
125 141  161
119 133  152
128 146  166
125 138  158
124 142  161
119 136  157
120 134  150
123 141  161
126 143  165
120 136  155
127 144  163
124 140  160
126 142  163
126 142  162
126 141  158
125 141  159
124 142  162
129 143  162
127 143  165
130 147  171
124 142  164
121 139  159
119 135  156
128 144  166
121 138  160
131 147  169
121 136  156
109 125  144
123 140  161
124 141  163
122 137  157
124 142  166
119 135  153
124 141  162
123 140  158
121 137  155
130 150  172
122 139  160
123 140  161
128 145  168
126 142  163
122 140  162
125 142  161
127 144  165
128 145  167
123 142  163
127 145  166
130 147  169
129 146  166
124 142  160
128 145  167
124 141  162
127 142  163
128 144  166
124 139  159
131 149  170
129 146  169
124 142  165
126 142  163
123 141  161
127 144  164
122 139  160
127 143  163
118 133  151
124 143  161
123 142  159
127 145  165
125 144  165
124 141  160
124 141  161
127 143  164
132 149  172
117 133  151
129 147  168
127 144  165
129 145  166
127 145  168
122 141  158
122 140  158
122 138  155
122 141  161
125 143  162
121 136  156
121 140  160
130 147  169
130 148  170
133 151  175
130 148  171
129 146  169
129 145  165
127 144  165
127 143  164
125 144  167
129 147  170
126 144  166
127 146  169
124 140  161
131 149  171
129 147  169
126 144  163
127 142  160
131 150  173
131 149  171
131 150  174
130 149  172
126 146  167
128 145  165
124 141  161
131 149  171
129 146  169
127 146  164
125 144  163
128 146  168
129 145  165
135 153  177
127 145  164
127 143  166
129 147  168
129 147  169
126 146  165
122 139  157
126 146  168
125 144  163
130 149  170
130 147  169
127 145  167
133 152  175
123 140  157
124 142  161
129 146  168
118 138  154
130 150  171
129 146  169
124 142  163
124 145  161
124 142  162
125 146  166
121 139  156
129 146  168
129 148  168
126 146  166
131 151  172
124 144  159
122 142  159
124 143  161
121 142  158
125 144  162
118 137  155
130 149  171
129 145  168
129 147  169
129 146  168
131 149  171
126 146  169
134 153  177
127 144  165
126 140  161
125 145  165
128 146  169
131 149  172
132 150  174
130 149  172
133 151  175
129 147  170
129 147  168
126 145  162
133 152  176
131 149  173
131 150  171
129 147  169
127 144  163
129 148  171
131 151  174
131 149  172
127 147  169
131 150  173
127 145  165
124 144  166
128 149  168
129 145  166
131 149  174
131 151  174
131 151  174
129 147  166
128 147  169
128 148  170
132 151  173
126 144  164
127 144  164
135 153  176
119 140  154
131 149  173
127 143  165
125 142  162
128 148  170
130 149  172
128 147  168
129 147  170
130 148  171
132 152  173
126 144  164
130 150  167
129 147  169
125 144  161
124 144  164
131 151  173
122 140  158
127 144  163
125 145  164
130 147  168
125 143  164
118 138  156
134 152  172
127 145  167
129 147  170
131 148  170
129 146  169
131 150  174
131 149  172
136 154  178
131 147  169
131 151  175
131 149  170
133 151  174
129 149  170
136 155  180
133 151  175
129 149  169
126 143  168
129 146  168
130 147  170
129 147  168
129 148  170
128 148  169
130 147  169
133 153  175
132 150  172
129 148  171
128 146  169
134 152  175
130 148  169
129 147  168
130 149  172
127 148  168
134 152  174
130 148  169
132 150  174
130 148  168
132 150  173
130 148  169
128 145  165
135 154  178
127 143  164
127 147  169
129 148  169
130 149  171
128 145  166
130 149  173
127 146  168
126 144  162
128 147  167
131 150  173
131 150  175
128 148  172
134 152  175
130 148  169
127 145  167
132 152  174
125 140  159
131 150  173
128 148  171
132 149  173
129 149  167
125 144  165
132 150  171
129 147  169
